<?xml version="1.0" standalone="no"?>
<!DOCTYPE svg PUBLIC "-//W3C//DTD SVG 20010904//EN"
 "http://www.w3.org/TR/2001/REC-SVG-20010904/DTD/svg10.dtd">
<svg version="1.0" xmlns="http://www.w3.org/2000/svg"
 width="1024.000000pt" height="1024.000000pt" viewBox="0 0 1024.000000 1024.000000"
 preserveAspectRatio="xMidYMid meet">
<metadata>
Created by potrace 1.14, written by Peter Selinger 2001-2017
</metadata>
<g transform="translate(0.000000,1024.000000) scale(0.100000,-0.100000)"
fill="#000000" stroke="none">
<path d="M4772 8532 c11 -14 11 -14 -6 -5 -13 7 -29 8 -43 2 -13 -5 -23 -5
-23 -1 0 4 -6 -2 -12 -13 -13 -22 -15 -69 -3 -104 5 -18 4 -22 -6 -16 -8 5 -6
-1 4 -12 18 -20 18 -22 -4 -42 -21 -19 -48 -27 -74 -21 -33 7 -107 1 -122 -11
-15 -12 -16 -12 -8 1 6 12 5 13 -5 3 -8 -8 -13 -43 -14 -101 -1 -70 -5 -93
-19 -106 -9 -10 -17 -13 -17 -8 0 6 -25 9 -57 7 -70 -3 -107 -11 -111 -25 -2
-6 -8 -7 -13 -4 -11 6 -7 -41 4 -52 3 -4 2 -16 -4 -27 -7 -12 -7 -17 -1 -13
11 7 11 -12 -1 -31 -5 -8 -4 -13 2 -13 6 0 11 -7 11 -15 0 -8 -5 -15 -11 -15
-5 0 -8 -4 -4 -9 10 -18 -31 -30 -109 -33 -59 -2 -81 -6 -93 -21 -18 -19 -27
-77 -12 -77 5 0 9 -5 9 -11 0 -5 -5 -7 -12 -3 -7 5 -8 3 -3 -6 17 -28 16 -78
-2 -99 -19 -23 -43 -28 -43 -8 0 9 -3 8 -9 -2 -7 -10 -13 -11 -30 -2 -12 7
-21 8 -21 2 0 -5 -10 -8 -22 -7 -13 2 -36 -5 -53 -14 -29 -16 -30 -17 -30
-105 0 -85 -1 -90 -25 -102 -13 -6 -29 -9 -35 -5 -9 7 -41 7 -123 1 -18 -1
-35 -6 -38 -11 -3 -4 -10 -6 -15 -3 -5 4 -9 2 -9 -4 0 -7 -8 -7 -25 -1 -18 7
-25 6 -25 -2 0 -7 -7 -3 -15 8 -13 16 -14 16 -9 2 3 -10 1 -18 -5 -18 -6 0
-11 8 -11 18 0 14 -2 15 -10 2 -5 -8 -10 -10 -10 -4 0 16 -32 12 -48 -6 -8 -8
-11 -10 -8 -5 2 6 1 17 -5 25 -5 9 -9 10 -9 3 0 -6 -8 -10 -17 -8 -10 1 -24
-2 -30 -8 -9 -6 -13 -6 -13 1 0 5 -23 9 -52 8 -29 -1 -61 2 -72 7 -13 6 -16 6
-12 -2 4 -6 3 -11 -3 -11 -5 0 -12 6 -14 13 -4 9 -6 9 -6 0 -1 -9 -8 -10 -25
-3 -15 5 -27 5 -35 -3 -8 -8 -11 -8 -11 0 0 7 -9 10 -22 7 -13 -3 -27 -5 -33
-5 -67 6 -214 6 -226 -1 -9 -4 -19 -4 -23 -1 -12 12 -36 12 -36 0 0 -8 -3 -8
-8 -2 -8 12 -112 14 -112 2 0 -5 -6 -5 -12 0 -20 12 -532 10 -540 -2 -5 -6 -8
-4 -8 5 0 13 -1 13 -10 0 -5 -8 -10 -10 -10 -5 0 10 -178 12 -215 2 -11 -3
-22 -6 -25 -6 -9 -1 -11 -58 -13 -268 -1 -105 1 -189 6 -186 4 2 7 0 7 -5 0
-5 18 -10 40 -10 22 0 44 -4 50 -7 5 -3 10 -3 10 2 0 4 14 8 30 8 17 0 30 -4
30 -9 0 -5 6 -4 13 2 14 12 30 4 35 -18 8 -36 8 -120 0 -120 -5 0 -6 -5 -2
-11 4 -7 8 -21 8 -33 1 -11 7 -20 14 -18 7 1 12 -2 12 -8 0 -5 5 -10 11 -10 5
0 8 4 5 8 -3 5 1 9 9 9 8 0 12 -4 9 -9 -4 -5 26 -9 67 -8 98 2 101 2 94 -10
-3 -5 -2 -10 2 -10 5 0 8 -15 6 -32 -2 -18 -4 -42 -4 -53 0 -10 -5 -25 -11
-32 -7 -9 -6 -14 7 -19 13 -5 14 -9 3 -15 -9 -6 -10 -9 -1 -9 7 0 10 -7 6 -17
-4 -11 -3 -14 5 -9 7 4 12 3 12 -2 0 -10 4 -11 87 -14 33 -2 59 0 57 3 -2 4 3
9 11 13 8 3 15 1 15 -4 0 -6 6 -10 14 -10 10 0 13 -24 15 -107 1 -106 8 -129
38 -118 7 2 15 0 18 -6 4 -5 13 -6 22 0 9 4 31 5 50 1 26 -6 33 -5 30 5 -7 16
33 14 52 -3 10 -10 13 -37 12 -98 -2 -58 2 -88 11 -97 14 -14 75 -17 95 -4 6
4 19 0 27 -9 13 -12 16 -13 16 -1 0 17 44 17 62 -1 7 -7 12 -46 12 -99 1 -49
4 -93 8 -99 4 -6 26 -10 50 -9 24 1 46 -3 50 -9 6 -8 8 -8 8 0 0 6 17 12 38
13 40 3 87 8 87 11 0 1 12 3 28 4 15 1 27 -2 27 -5 0 -4 14 -4 30 1 19 5 30 5
30 -1 0 -6 6 -7 12 -3 18 11 48 12 54 2 3 -4 9 -6 13 -3 5 2 8 -10 8 -28 -1
-18 2 -39 5 -48 3 -9 2 -22 -2 -29 -5 -7 -4 -23 0 -36 5 -12 6 -25 2 -29 -4
-4 -7 -12 -7 -18 0 -8 -36 -14 -110 -17 l-109 -5 -12 -41 c-7 -23 -8 -47 -4
-55 5 -8 4 -19 -2 -26 -7 -9 -7 -13 0 -13 7 0 8 -10 2 -30 -6 -21 -5 -28 2
-24 6 4 8 -1 4 -14 -4 -11 -3 -23 3 -26 5 -3 7 -15 4 -26 -3 -11 -10 -17 -17
-13 -6 4 -6 0 2 -9 16 -20 15 -171 -2 -161 -6 4 -5 0 2 -9 8 -10 13 -51 15
-109 l2 -94 -97 -1 c-68 -1 -101 -6 -111 -15 -18 -18 -20 -252 -3 -242 6 4 5
-1 -3 -10 -9 -11 -10 -17 -2 -17 6 0 11 -5 11 -11 0 -5 -6 -7 -12 -3 -8 5 -7
0 2 -10 8 -11 13 -29 12 -41 -2 -11 2 -34 8 -49 6 -17 6 -25 0 -21 -6 3 -10
-1 -10 -9 0 -20 -21 -25 -123 -25 -123 0 -124 0 -121 -64 1 -28 3 -358 3 -733
l1 -680 106 0 c60 1 109 -3 113 -9 4 -5 7 -23 6 -40 -2 -16 2 -36 9 -44 8 -11
8 -13 -1 -7 -7 4 -13 2 -13 -3 0 -6 6 -11 13 -11 7 0 8 -3 2 -8 -12 -8 -14
-151 -3 -168 4 -6 5 -14 1 -18 -10 -10 -10 -136 0 -136 6 0 6 -5 0 -12 -12
-16 -11 -118 1 -137 6 -9 5 -12 0 -8 -13 7 -12 -113 0 -132 6 -9 5 -12 -1 -8
-12 8 -11 -92 1 -112 6 -9 5 -12 -1 -8 -13 8 -12 -176 2 -185 6 -5 6 -8 -2 -8
-6 0 -10 -11 -8 -25 3 -32 -5 -37 -64 -37 -58 1 -74 4 -83 17 -5 6 -12 4 -18
-5 -8 -12 -10 -12 -10 -1 0 11 -3 11 -15 1 -12 -10 -15 -10 -15 0 0 10 -3 10
-15 0 -12 -10 -15 -10 -15 1 0 11 -2 11 -9 0 -8 -13 -12 -13 -27 0 -10 8 -15
9 -11 3 4 -8 -5 -11 -28 -10 -19 0 -35 5 -35 10 0 5 -7 3 -15 -4 -8 -6 -19 -9
-25 -5 -5 3 -10 1 -10 -5 0 -6 -5 -8 -11 -5 -6 4 -16 -1 -24 -11 -10 -14 -10
-21 -2 -26 9 -6 8 -8 -2 -8 -11 0 -11 -3 0 -17 12 -14 12 -16 0 -8 -10 5 -12
4 -7 -3 12 -20 15 -51 5 -57 -5 -4 -6 -12 -2 -18 4 -7 8 -40 9 -74 0 -34 6
-69 13 -77 21 -25 -18 -36 -123 -36 -65 0 -97 -4 -103 -12 -14 -22 -11 -241 3
-255 9 -10 13 -10 16 -1 3 9 239 12 974 12 533 1 974 4 980 8 6 4 14 4 18 0
12 -12 406 -10 406 2 0 8 3 8 8 0 9 -13 134 -13 144 1 5 6 8 6 8 -1 0 -14 52
-13 62 1 5 7 8 6 8 -1 0 -11 79 -12 97 -1 6 4 13 3 17 -1 11 -10 30 -9 38 3 5
7 8 7 8 0 0 -13 99 -13 119 -1 10 6 12 5 7 -2 -4 -7 -1 -12 9 -12 10 0 13 5 9
12 -5 7 -3 8 7 2 18 -11 79 -13 85 -2 3 5 11 5 17 1 19 -12 397 -11 397 2 0 6
3 7 8 0 10 -14 49 -18 57 -5 3 6 12 7 18 3 18 -12 397 -11 390 1 -4 5 -1 6 8
0 19 -12 59 -13 59 -2 0 5 6 6 13 1 19 -13 1957 -12 1958 1 0 6 3 20 5 31 3
11 6 29 7 40 1 11 7 23 12 27 6 5 6 8 -1 8 -6 0 -11 19 -11 43 0 23 -4 51 -8
61 -7 15 -5 17 6 11 12 -8 12 -6 0 8 -12 15 -45 17 -332 17 l-319 0 -5 22 c-6
31 -1 140 8 155 4 6 3 14 -3 18 -5 3 -10 11 -10 16 0 6 6 7 13 3 9 -6 9 -4 -1
8 -10 13 -10 17 0 21 10 4 10 7 -1 15 -8 6 -10 15 -5 23 12 19 16 51 6 45 -5
-3 -9 1 -9 9 0 8 3 12 7 10 9 -6 7 67 -3 82 -4 6 -3 14 1 17 5 3 9 26 9 50 0
27 -4 43 -9 40 -6 -4 -5 3 1 14 14 27 14 35 -1 26 -10 -6 -10 -4 -2 7 11 16
12 29 2 44 -4 6 -3 17 3 25 12 21 11 33 -3 24 -7 -5 -8 -3 -3 6 13 21 15 131
3 124 -6 -4 -8 -2 -4 4 11 18 14 72 4 78 -5 3 -4 12 3 20 9 11 9 14 -1 14 -10
0 -10 4 1 16 10 13 10 17 -2 25 -10 7 -11 11 -2 17 7 5 9 13 3 21 -4 8 -4 25
1 38 6 18 6 22 -3 17 -7 -4 -8 -3 -4 5 12 19 14 61 3 61 -6 0 -5 5 1 13 7 8 7
18 2 27 -5 9 -5 19 2 27 8 10 7 13 -3 13 -10 0 -10 3 -1 12 15 15 16 31 0 22
-7 -5 -8 -3 -3 6 12 20 13 80 1 80 -6 0 -4 5 4 10 8 5 11 10 5 10 -5 0 -11 18
-13 40 -1 24 2 40 8 40 6 0 9 4 5 9 -11 18 20 25 114 26 l95 0 1 725 c0 399
-1 732 -3 740 -2 12 -23 15 -111 14 -97 -1 -109 1 -120 18 -7 12 -8 17 -2 13
6 -3 11 -1 11 4 0 6 -4 11 -9 11 -5 0 -9 24 -8 54 1 30 5 52 9 50 5 -3 9 7 9
23 2 37 3 44 13 71 5 15 3 29 -6 39 -9 12 -9 15 0 9 6 -4 12 -3 12 3 0 5 -5
13 -10 16 -7 4 -7 12 0 25 13 24 13 33 -1 24 -7 -4 -7 1 1 16 9 17 9 24 0 30
-6 4 -11 10 -11 14 4 30 -1 31 -109 28 l-110 -3 -1 38 c0 21 0 170 -1 331 l0
292 -109 0 c-80 0 -109 3 -111 13 0 6 -2 23 -2 37 -1 14 -5 31 -9 38 -5 6 -4
12 2 12 6 0 8 18 6 43 -3 23 -1 48 4 56 9 14 91 23 91 9 0 -3 12 -3 28 1 15 5
37 4 50 0 15 -6 22 -5 22 3 0 9 3 9 12 0 8 -8 17 -8 31 -1 14 8 18 8 13 0 -7
-11 -3 -12 129 -14 55 -2 60 0 63 21 2 14 8 20 15 15 9 -5 9 -3 0 8 -8 10 -11
44 -10 95 l2 79 45 1 c25 1 48 -4 52 -10 5 -8 8 -7 8 2 0 8 5 10 12 6 18 -11
48 -12 42 -2 -8 12 29 6 38 -7 16 -22 22 12 22 124 1 115 1 119 22 117 12 0
20 -4 17 -8 -2 -5 -1 -8 4 -9 4 -1 19 -2 33 -4 14 -1 37 -7 51 -13 15 -6 30
-8 34 -4 4 4 16 7 28 7 12 1 21 6 20 13 -2 7 1 12 6 12 4 0 8 45 7 100 -1 55
2 100 7 100 4 0 6 4 3 9 -7 10 37 9 45 -2 6 -8 128 -16 127 -7 -2 18 4 23 12
10 8 -13 10 -12 10 3 0 9 3 17 8 17 6 0 10 32 15 132 1 20 -1 34 -5 32 -4 -3
-4 5 1 18 6 17 17 23 40 25 19 1 29 -3 25 -9 -4 -5 4 -5 16 2 15 8 20 8 16 1
-5 -8 12 -11 53 -11 34 0 63 5 67 12 5 7 2 9 -7 4 -10 -6 -10 -4 1 6 15 13 20
117 7 152 -4 9 -3 16 2 16 5 0 7 11 6 24 -2 14 3 27 11 30 9 3 14 -1 14 -12 0
-15 2 -15 10 -2 5 8 10 10 10 5 0 -6 24 -11 58 -10 31 0 64 -3 73 -7 8 -4 22
-3 29 2 12 8 15 50 16 232 0 123 -1 229 -4 236 -3 8 -22 12 -57 11 -28 -1 -57
1 -64 5 -6 4 -11 3 -11 -2 0 -5 -17 -6 -40 -2 -22 4 -40 3 -40 -2 0 -5 -10 -3
-22 3 -22 12 -22 11 -8 -6 14 -17 14 -18 -7 -6 -13 6 -23 9 -23 5 0 -3 -8 0
-17 7 -10 8 -14 9 -10 2 4 -6 3 -14 -3 -18 -5 -3 -10 -2 -10 3 0 5 -6 9 -12
10 -36 6 -648 7 -648 1 0 -8 -32 -5 -47 4 -7 4 -18 1 -25 -6 -11 -12 -15 -12
-25 2 -7 9 -13 11 -13 6 0 -12 -40 -13 -58 -1 -7 4 -12 4 -12 -1 0 -8 -108 -8
-116 0 -3 3 -19 1 -35 -3 -17 -5 -31 -5 -35 1 -3 6 -12 3 -21 -8 -8 -10 -12
-13 -9 -7 3 7 -3 14 -14 17 -10 3 -21 0 -24 -7 -3 -7 -5 -7 -5 2 -1 9 -6 10
-20 2 -14 -7 -21 -6 -24 3 -4 9 -8 9 -15 -2 -8 -11 -10 -11 -15 0 -3 8 -6 9
-6 2 -1 -6 -10 -9 -23 -5 -16 4 -19 2 -13 -9 7 -12 6 -12 -7 -1 -13 10 -17 10
-20 0 -4 -11 -8 -11 -20 0 -13 10 -17 10 -20 0 -4 -10 -9 -10 -23 2 -10 8 -16
10 -12 4 4 -7 -2 -14 -13 -17 -11 -3 -18 -1 -15 3 3 5 1 12 -5 15 -6 4 -10 3
-9 -2 1 -4 1 -15 0 -23 -1 -13 -2 -13 -11 0 -5 8 -10 11 -10 6 0 -5 -8 -2 -17
5 -11 10 -14 10 -9 2 4 -7 3 -13 -2 -13 -6 0 -13 7 -16 16 -4 9 -9 14 -12 11
-3 -3 -1 -16 6 -29 10 -21 10 -21 -3 -5 -8 9 -19 17 -25 17 -6 0 -14 4 -17 10
-4 6 1 7 12 3 10 -3 15 -2 11 2 -13 14 -127 12 -132 -2 -4 -9 -12 -9 -33 2
-35 19 -43 19 -43 0 0 -12 -3 -12 -18 3 -17 16 -24 83 -10 97 3 3 2 21 -2 40
-4 19 -6 36 -3 39 3 2 2 13 -1 23 -6 17 -17 19 -111 18 -58 -1 -105 1 -106 4
-1 3 -2 55 -3 114 -2 81 -6 111 -16 117 -8 5 -68 8 -133 7 -71 -1 -121 2 -126
8 -4 5 -6 56 -6 113 1 78 -2 102 -12 102 -7 0 -13 5 -13 10 0 12 -43 14 -54 3
-12 -13 -145 -12 -153 0 -9 15 -11 167 -1 161 4 -3 2 9 -4 26 -5 17 -13 29
-15 26 -3 -3 -14 -1 -24 5 -13 6 -19 6 -19 0 0 -7 -8 -7 -24 -1 -13 5 -26 6
-29 4 -5 -5 -54 -8 -84 -5 -7 0 -13 8 -13 16 0 8 -6 15 -12 15 -9 0 -8 4 2 10
9 6 10 10 3 10 -8 0 -9 9 -3 30 6 21 5 30 -3 30 -7 0 -6 5 3 11 12 8 12 12 2
16 -10 4 -10 8 -1 19 9 11 9 14 -1 14 -7 0 -10 7 -6 15 10 26 31 25 -508 22
-266 -1 -390 1 -413 9 -30 11 -32 10 -21 -4z m2778 -3906 c0 -3 -4 -8 -10 -11
-5 -3 -10 -1 -10 4 0 6 5 11 10 11 6 0 10 -2 10 -4z"/>
</g>
</svg>
